G04 #@! TF.FileFunction,Soldermask,Bot*
%FSLAX46Y46*%
G04 Gerber Fmt 4.6, Leading zero omitted, Abs format (unit mm)*
G04 Created by KiCad (PCBNEW 4.0.7) date 06/22/19 17:44:06*
%MOMM*%
%LPD*%
G01*
G04 APERTURE LIST*
%ADD10C,0.100000*%
%ADD11C,1.840000*%
%ADD12R,3.000000X2.400000*%
%ADD13O,3.000000X2.400000*%
%ADD14R,2.400000X2.400000*%
%ADD15C,2.400000*%
%ADD16R,1.950000X1.000000*%
%ADD17R,2.100000X2.100000*%
%ADD18O,2.100000X2.100000*%
%ADD19R,2.200000X1.200000*%
%ADD20R,0.850000X1.850000*%
%ADD21R,2.900000X2.400000*%
%ADD22R,1.150000X1.600000*%
%ADD23R,2.000000X2.400000*%
%ADD24R,1.900000X1.650000*%
%ADD25C,2.000000*%
%ADD26O,2.000000X2.000000*%
%ADD27R,1.600000X1.150000*%
%ADD28C,2.100000*%
%ADD29R,2.200000X2.200000*%
%ADD30C,2.200000*%
%ADD31R,1.300000X1.200000*%
%ADD32R,2.000000X1.400000*%
%ADD33C,2.800000*%
%ADD34R,3.400000X1.050000*%
%ADD35R,2.400000X1.010000*%
%ADD36R,4.000000X3.080000*%
%ADD37R,2.900000X6.400000*%
%ADD38R,4.400000X3.900000*%
%ADD39R,2.600000X1.600000*%
%ADD40R,6.800000X6.200000*%
%ADD41R,2.300000X1.200000*%
%ADD42R,0.800000X1.650000*%
%ADD43R,1.100000X1.400000*%
%ADD44R,1.600000X1.300000*%
%ADD45R,1.300000X1.600000*%
%ADD46R,1.300000X2.900000*%
%ADD47R,1.000000X1.900000*%
%ADD48O,7.700000X7.700000*%
%ADD49R,2.000000X2.000000*%
%ADD50R,1.000000X1.950000*%
%ADD51R,0.700000X2.000000*%
%ADD52R,2.000000X0.700000*%
%ADD53R,1.000000X0.900000*%
%ADD54R,0.900000X1.000000*%
%ADD55R,2.900000X2.350000*%
%ADD56R,1.700000X1.900000*%
%ADD57R,1.400000X1.400000*%
%ADD58O,1.400000X1.400000*%
%ADD59C,1.800000*%
%ADD60O,1.800000X1.800000*%
%ADD61R,1.000000X0.800000*%
%ADD62R,1.900000X1.000000*%
%ADD63R,1.960000X1.050000*%
%ADD64R,0.650000X1.950000*%
%ADD65R,1.500000X1.230000*%
%ADD66C,4.200000*%
G04 APERTURE END LIST*
D10*
D11*
X111400000Y-117000000D03*
X113940000Y-117000000D03*
X116480000Y-117000000D03*
D12*
X171400000Y-82800000D03*
D13*
X171400000Y-85340000D03*
D14*
X88600000Y-71400000D03*
D15*
X93600000Y-71400000D03*
D16*
X131800000Y-129795000D03*
X131800000Y-131065000D03*
X131800000Y-132335000D03*
X131800000Y-133605000D03*
X126400000Y-133605000D03*
X126400000Y-132335000D03*
X126400000Y-131065000D03*
X126400000Y-129795000D03*
D17*
X210185000Y-85725000D03*
D18*
X210185000Y-88265000D03*
X210185000Y-90805000D03*
X210185000Y-93345000D03*
X210185000Y-95885000D03*
X210185000Y-98425000D03*
X210185000Y-100965000D03*
X210185000Y-103505000D03*
X210185000Y-106045000D03*
X210185000Y-108585000D03*
X210185000Y-111125000D03*
X210185000Y-113665000D03*
X210185000Y-116205000D03*
X210185000Y-118745000D03*
X210185000Y-121285000D03*
X210185000Y-123825000D03*
X210185000Y-126365000D03*
D17*
X225425000Y-85725000D03*
D18*
X225425000Y-88265000D03*
X225425000Y-90805000D03*
X225425000Y-93345000D03*
X225425000Y-95885000D03*
X225425000Y-98425000D03*
X225425000Y-100965000D03*
X225425000Y-103505000D03*
X225425000Y-106045000D03*
X225425000Y-108585000D03*
X225425000Y-111125000D03*
X225425000Y-113665000D03*
X225425000Y-116205000D03*
X225425000Y-118745000D03*
X225425000Y-121285000D03*
X225425000Y-123825000D03*
X225425000Y-126365000D03*
D19*
X159350000Y-85050000D03*
X159350000Y-83150000D03*
X162650000Y-84100000D03*
D20*
X168050000Y-97050000D03*
X168700000Y-97050000D03*
X169350000Y-97050000D03*
X170000000Y-97050000D03*
X170650000Y-97050000D03*
X171300000Y-97050000D03*
X171950000Y-97050000D03*
X171950000Y-102950000D03*
X171300000Y-102950000D03*
X170650000Y-102950000D03*
X170000000Y-102950000D03*
X169350000Y-102950000D03*
X168700000Y-102950000D03*
X168050000Y-102950000D03*
D21*
X73300000Y-126100000D03*
X73300000Y-130100000D03*
D22*
X86800000Y-104150000D03*
X86800000Y-102250000D03*
D23*
X89200000Y-105400000D03*
X89200000Y-101400000D03*
D22*
X109600000Y-104350000D03*
X109600000Y-102450000D03*
D23*
X107000000Y-105400000D03*
X107000000Y-101400000D03*
D22*
X109600000Y-95650000D03*
X109600000Y-97550000D03*
X86800000Y-95650000D03*
X86800000Y-97550000D03*
D23*
X107000000Y-94600000D03*
X107000000Y-98600000D03*
X89200000Y-94600000D03*
X89200000Y-98600000D03*
D24*
X109350000Y-134400000D03*
X111850000Y-134400000D03*
D25*
X107000000Y-134400000D03*
D26*
X114500000Y-134400000D03*
D27*
X90050000Y-69000000D03*
X91950000Y-69000000D03*
D22*
X87800000Y-62750000D03*
X87800000Y-60850000D03*
D28*
X72560000Y-110000000D03*
D17*
X70000000Y-110000000D03*
D28*
X83060000Y-110000000D03*
D17*
X80500000Y-110000000D03*
D29*
X75200000Y-116600000D03*
D30*
X72660000Y-116600000D03*
D29*
X75200000Y-83400000D03*
D30*
X72660000Y-83400000D03*
D29*
X85600000Y-83400000D03*
D30*
X83060000Y-83400000D03*
D28*
X83060000Y-90000000D03*
D17*
X80500000Y-90000000D03*
D29*
X85800000Y-116600000D03*
D30*
X83260000Y-116600000D03*
D28*
X72560000Y-90000000D03*
D17*
X70000000Y-90000000D03*
D29*
X84200000Y-155500000D03*
D30*
X81660000Y-155500000D03*
D29*
X84200000Y-44600000D03*
D30*
X81660000Y-44600000D03*
D31*
X92000000Y-105300000D03*
X92000000Y-103200000D03*
X104000000Y-103150000D03*
X104000000Y-105250000D03*
X104000000Y-96850000D03*
X104000000Y-94750000D03*
X92000000Y-94450000D03*
X92000000Y-96550000D03*
D32*
X190250000Y-63350000D03*
X190250000Y-60350000D03*
D25*
X192975000Y-59185000D03*
X192975000Y-61725000D03*
X192975000Y-64265000D03*
D12*
X96550000Y-128800000D03*
D13*
X96550000Y-126260000D03*
D12*
X96550000Y-136400000D03*
D13*
X96550000Y-133860000D03*
D33*
X93000000Y-118000000D03*
X98800000Y-118000000D03*
X93200000Y-82000000D03*
X98800000Y-82000000D03*
X105800000Y-117000000D03*
X84000000Y-56600000D03*
D34*
X142900000Y-96825000D03*
X142900000Y-99365000D03*
X142900000Y-101905000D03*
X139900000Y-98095000D03*
X139900000Y-100635000D03*
X139900000Y-103175000D03*
D35*
X139200000Y-73500000D03*
X139200000Y-74500000D03*
X139200000Y-75500000D03*
X139200000Y-76500000D03*
X139200000Y-77500000D03*
X139200000Y-78500000D03*
X139200000Y-79500000D03*
X139200000Y-80500000D03*
X139200000Y-81500000D03*
X139200000Y-82500000D03*
D36*
X142000000Y-70510000D03*
X142000000Y-85490000D03*
D37*
X202050000Y-131200000D03*
D38*
X197264000Y-131200000D03*
D33*
X175400000Y-141600000D03*
X188700000Y-137200000D03*
X154300000Y-77300000D03*
X154400000Y-137700000D03*
X156250000Y-57750000D03*
X152500000Y-60000000D03*
D17*
X211000000Y-75750000D03*
D18*
X213540000Y-75750000D03*
X216080000Y-75750000D03*
X218620000Y-75750000D03*
X221160000Y-75750000D03*
D33*
X213300000Y-132200000D03*
D17*
X219800000Y-132200000D03*
D18*
X217260000Y-132200000D03*
D33*
X153800000Y-93600000D03*
D39*
X82000000Y-125880000D03*
X82000000Y-121320000D03*
D40*
X88300000Y-123600000D03*
D41*
X216900000Y-127750000D03*
X216900000Y-125850000D03*
X219900000Y-126800000D03*
D19*
X159350000Y-71650000D03*
X159350000Y-69750000D03*
X162650000Y-70700000D03*
D42*
X166500000Y-69350000D03*
X167150000Y-69350000D03*
X167150000Y-72050000D03*
X166500000Y-72050000D03*
X165850000Y-72050000D03*
X165850000Y-69350000D03*
D43*
X165950000Y-70700000D03*
X167050000Y-70700000D03*
D19*
X159350000Y-129050000D03*
X159350000Y-127150000D03*
X162650000Y-128100000D03*
D42*
X166500000Y-82750000D03*
X167150000Y-82750000D03*
X167150000Y-85450000D03*
X166500000Y-85450000D03*
X165850000Y-85450000D03*
X165850000Y-82750000D03*
D43*
X165950000Y-84100000D03*
X167050000Y-84100000D03*
D42*
X166500000Y-126750000D03*
X167150000Y-126750000D03*
X167150000Y-129450000D03*
X166500000Y-129450000D03*
X165850000Y-129450000D03*
X165850000Y-126750000D03*
D43*
X165950000Y-128100000D03*
X167050000Y-128100000D03*
D19*
X159350000Y-115350000D03*
X159350000Y-113450000D03*
X162650000Y-114400000D03*
D42*
X166500000Y-113050000D03*
X167150000Y-113050000D03*
X167150000Y-115750000D03*
X166500000Y-115750000D03*
X165850000Y-115750000D03*
X165850000Y-113050000D03*
D43*
X165950000Y-114400000D03*
X167050000Y-114400000D03*
D44*
X118100000Y-103200000D03*
X115900000Y-103200000D03*
X118100000Y-105800000D03*
X115900000Y-105800000D03*
D45*
X101600000Y-103100000D03*
X101600000Y-105300000D03*
D44*
X125700000Y-109200000D03*
X123500000Y-109200000D03*
X125700000Y-107400000D03*
X123500000Y-107400000D03*
X125700000Y-105600000D03*
X123500000Y-105600000D03*
X125700000Y-100000000D03*
X123500000Y-100000000D03*
X125700000Y-103200000D03*
X123500000Y-103200000D03*
X125700000Y-101600000D03*
X123500000Y-101600000D03*
X89500000Y-112400000D03*
X91700000Y-112400000D03*
X94700000Y-112400000D03*
X96900000Y-112400000D03*
D45*
X101600000Y-96900000D03*
X101600000Y-94700000D03*
X94500000Y-96850000D03*
X94500000Y-94650000D03*
D44*
X91700000Y-88200000D03*
X89500000Y-88200000D03*
X134600000Y-73800000D03*
X132400000Y-73800000D03*
X96900000Y-88200000D03*
X94700000Y-88200000D03*
X198650000Y-74500000D03*
X200850000Y-74500000D03*
X198650000Y-78000000D03*
X200850000Y-78000000D03*
X198650000Y-80500000D03*
X200850000Y-80500000D03*
X200850000Y-82500000D03*
X198650000Y-82500000D03*
D45*
X134100000Y-133400000D03*
X134100000Y-131200000D03*
X213000000Y-87700000D03*
X213000000Y-89900000D03*
X215000000Y-87700000D03*
X215000000Y-89900000D03*
D44*
X216900000Y-62250000D03*
X219100000Y-62250000D03*
D45*
X216750000Y-57650000D03*
X216750000Y-59850000D03*
X201000000Y-101900000D03*
X201000000Y-104100000D03*
X220900000Y-105400000D03*
X220900000Y-103200000D03*
X214400000Y-125900000D03*
X214400000Y-128100000D03*
D44*
X219500000Y-123400000D03*
X217300000Y-123400000D03*
X219500000Y-129600000D03*
X217300000Y-129600000D03*
D46*
X165150000Y-66900000D03*
X168050000Y-66900000D03*
X167950000Y-75200000D03*
X165050000Y-75200000D03*
X165050000Y-80100000D03*
X167950000Y-80100000D03*
X167950000Y-88500000D03*
X165050000Y-88500000D03*
X164950000Y-124000000D03*
X167850000Y-124000000D03*
X165050000Y-110400000D03*
X167950000Y-110400000D03*
D15*
X198740000Y-143040000D03*
X196200000Y-143040000D03*
X193660000Y-143040000D03*
X198740000Y-137960000D03*
X196200000Y-137960000D03*
X193660000Y-137960000D03*
X201280000Y-140500000D03*
X191120000Y-140500000D03*
D47*
X79890000Y-136750000D03*
X81160000Y-136750000D03*
X82430000Y-136750000D03*
X83700000Y-136750000D03*
X84970000Y-136750000D03*
X86240000Y-136750000D03*
X87510000Y-136750000D03*
X87510000Y-142150000D03*
X86240000Y-142150000D03*
X84970000Y-142150000D03*
X83700000Y-142150000D03*
X82430000Y-142150000D03*
X81160000Y-142150000D03*
X79890000Y-142150000D03*
D48*
X90000000Y-37500000D03*
D49*
X222900000Y-106900000D03*
D26*
X212740000Y-99280000D03*
X222900000Y-104360000D03*
X212740000Y-101820000D03*
X222900000Y-101820000D03*
X212740000Y-104360000D03*
X222900000Y-99280000D03*
X212740000Y-106900000D03*
D50*
X160095000Y-97300000D03*
X161365000Y-97300000D03*
X162635000Y-97300000D03*
X163905000Y-97300000D03*
X163905000Y-102700000D03*
X162635000Y-102700000D03*
X161365000Y-102700000D03*
X160095000Y-102700000D03*
D11*
X104800000Y-60800000D03*
X102260000Y-60800000D03*
X99720000Y-60800000D03*
X104800000Y-66600000D03*
X102260000Y-66600000D03*
X99720000Y-66600000D03*
X104800000Y-72400000D03*
X102260000Y-72400000D03*
X99720000Y-72400000D03*
D51*
X197000000Y-98000000D03*
X197500000Y-98000000D03*
X198000000Y-98000000D03*
X198500000Y-98000000D03*
X199000000Y-98000000D03*
D52*
X200000000Y-99500000D03*
X200000000Y-100000000D03*
X200000000Y-100500000D03*
D51*
X199000000Y-102000000D03*
X198500000Y-102000000D03*
X198000000Y-102000000D03*
X197500000Y-102000000D03*
X197000000Y-102000000D03*
D52*
X196000000Y-100500000D03*
X196000000Y-100000000D03*
X196000000Y-99500000D03*
D53*
X79950000Y-145400000D03*
X81050000Y-145400000D03*
X79950000Y-144200000D03*
X81050000Y-144200000D03*
D54*
X70700000Y-127350000D03*
X70700000Y-128450000D03*
X69400000Y-127350000D03*
X69400000Y-128450000D03*
X76000000Y-102050000D03*
X76000000Y-100950000D03*
X76000000Y-99050000D03*
X76000000Y-97950000D03*
X77500000Y-102050000D03*
X77500000Y-100950000D03*
X77500000Y-99050000D03*
X77500000Y-97950000D03*
D53*
X82550000Y-60000000D03*
X81450000Y-60000000D03*
X82550000Y-69600000D03*
X81450000Y-69600000D03*
D54*
X107200000Y-131950000D03*
X107200000Y-130850000D03*
X114200000Y-127550000D03*
X114200000Y-126450000D03*
D53*
X126150000Y-79200000D03*
X127250000Y-79200000D03*
X127250000Y-78000000D03*
X126150000Y-78000000D03*
D54*
X97000000Y-101750000D03*
X97000000Y-100650000D03*
X97000000Y-99350000D03*
X97000000Y-98250000D03*
X98800000Y-101750000D03*
X98800000Y-100650000D03*
X98800000Y-99350000D03*
X98800000Y-98250000D03*
D53*
X134350000Y-63600000D03*
X133250000Y-63600000D03*
X133250000Y-66200000D03*
X134350000Y-66200000D03*
X134350000Y-62400000D03*
X133250000Y-62400000D03*
X133250000Y-65000000D03*
X134350000Y-65000000D03*
X138250000Y-88500000D03*
X137150000Y-88500000D03*
X134350000Y-59600000D03*
X133250000Y-59600000D03*
X134350000Y-60800000D03*
X133250000Y-60800000D03*
X162450000Y-138250000D03*
X163550000Y-138250000D03*
X166950000Y-138250000D03*
X168050000Y-138250000D03*
X169950000Y-95300000D03*
X171050000Y-95300000D03*
X168850000Y-104700000D03*
X169950000Y-104700000D03*
X160950000Y-63200000D03*
X162050000Y-63200000D03*
X165750000Y-63200000D03*
X166850000Y-63200000D03*
X157750000Y-109400000D03*
X158850000Y-109400000D03*
X166650000Y-134700000D03*
X167750000Y-134700000D03*
X156450000Y-65950000D03*
X157550000Y-65950000D03*
X167150000Y-90300000D03*
X168250000Y-90300000D03*
D35*
X138600000Y-111400000D03*
X138600000Y-112400000D03*
X138600000Y-113400000D03*
X138600000Y-114400000D03*
X138600000Y-115400000D03*
X138600000Y-116400000D03*
X138600000Y-117400000D03*
X138600000Y-118400000D03*
X138600000Y-119400000D03*
X138600000Y-120400000D03*
D36*
X141400000Y-108410000D03*
X141400000Y-123390000D03*
D44*
X225100000Y-131600000D03*
X222900000Y-131600000D03*
X221100000Y-135400000D03*
X218900000Y-135400000D03*
D55*
X117500000Y-140525000D03*
X117500000Y-137475000D03*
X122500000Y-137475000D03*
X122500000Y-140525000D03*
D56*
X78700000Y-122250000D03*
X78700000Y-124950000D03*
D22*
X194250000Y-101300000D03*
X194250000Y-103200000D03*
D33*
X153800000Y-106800000D03*
D57*
X229200000Y-112400000D03*
D58*
X229200000Y-113670000D03*
D45*
X94500000Y-103150000D03*
X94500000Y-105350000D03*
D44*
X198650000Y-84750000D03*
X200850000Y-84750000D03*
D54*
X162000000Y-142450000D03*
X162000000Y-143550000D03*
D53*
X194550000Y-64200000D03*
X195650000Y-64200000D03*
X194650000Y-59200000D03*
X195750000Y-59200000D03*
X212050000Y-116100000D03*
X213150000Y-116100000D03*
D22*
X227700000Y-118850000D03*
X227700000Y-120750000D03*
D54*
X195750000Y-102450000D03*
X195750000Y-103550000D03*
D22*
X223200000Y-111250000D03*
X223200000Y-113150000D03*
D53*
X212050000Y-113600000D03*
X213150000Y-113600000D03*
D22*
X228100000Y-91150000D03*
X228100000Y-93050000D03*
D53*
X159450000Y-104700000D03*
X160550000Y-104700000D03*
X165050000Y-95500000D03*
X163950000Y-95500000D03*
D17*
X206000000Y-96550000D03*
D18*
X206000000Y-99090000D03*
X206000000Y-101630000D03*
X206000000Y-104170000D03*
X206000000Y-106710000D03*
D12*
X171300000Y-115700000D03*
D13*
X171300000Y-113160000D03*
D59*
X108200000Y-137200000D03*
D60*
X113280000Y-137200000D03*
D59*
X86200000Y-64200000D03*
D60*
X86200000Y-59120000D03*
D61*
X138600000Y-109350000D03*
X138600000Y-110250000D03*
D44*
X133300000Y-127400000D03*
X131100000Y-127400000D03*
D61*
X186800000Y-58350000D03*
X186800000Y-59250000D03*
X169000000Y-141550000D03*
X169000000Y-142450000D03*
D46*
X167850000Y-132400000D03*
X164950000Y-132400000D03*
X167850000Y-118600000D03*
X164950000Y-118600000D03*
D48*
X90000000Y-162600000D03*
D62*
X127850000Y-89940000D03*
X127850000Y-91210000D03*
X127850000Y-92480000D03*
X127850000Y-93750000D03*
X127850000Y-95020000D03*
X127850000Y-96290000D03*
X127850000Y-97560000D03*
X122450000Y-97560000D03*
X122450000Y-96290000D03*
X122450000Y-95020000D03*
X122450000Y-93750000D03*
X122450000Y-92480000D03*
X122450000Y-91210000D03*
X122450000Y-89940000D03*
D50*
X108695000Y-126700000D03*
X109965000Y-126700000D03*
X111235000Y-126700000D03*
X112505000Y-126700000D03*
X112505000Y-132100000D03*
X111235000Y-132100000D03*
X109965000Y-132100000D03*
X108695000Y-132100000D03*
D20*
X80050000Y-61850000D03*
X80700000Y-61850000D03*
X81350000Y-61850000D03*
X82000000Y-61850000D03*
X82650000Y-61850000D03*
X83300000Y-61850000D03*
X83950000Y-61850000D03*
X83950000Y-67750000D03*
X83300000Y-67750000D03*
X82650000Y-67750000D03*
X82000000Y-67750000D03*
X81350000Y-67750000D03*
X80700000Y-67750000D03*
X80050000Y-67750000D03*
D63*
X166600000Y-142550000D03*
X166600000Y-143500000D03*
X166600000Y-144450000D03*
X163900000Y-144450000D03*
X163900000Y-142550000D03*
D64*
X169750000Y-54850000D03*
X170250000Y-54850000D03*
X170750000Y-54850000D03*
X171250000Y-54850000D03*
X171750000Y-54850000D03*
X172250000Y-54850000D03*
X172750000Y-54850000D03*
X173250000Y-54850000D03*
X173750000Y-54850000D03*
X173750000Y-58650000D03*
X173250000Y-58650000D03*
X172750000Y-58650000D03*
X172250000Y-58650000D03*
X171750000Y-58650000D03*
X171250000Y-58650000D03*
X170750000Y-58650000D03*
X170250000Y-58650000D03*
X169750000Y-58650000D03*
D65*
X173400000Y-57165000D03*
X172300000Y-57165000D03*
X171200000Y-57165000D03*
X170100000Y-57165000D03*
X173400000Y-56335000D03*
X172300000Y-56335000D03*
X171200000Y-56335000D03*
X170100000Y-56335000D03*
D66*
X67000000Y-121500000D03*
X67000000Y-78500000D03*
X73000000Y-57000000D03*
X73000000Y-143000000D03*
X139800000Y-147500000D03*
X140000000Y-52500000D03*
X105000000Y-147500000D03*
X105000000Y-52500000D03*
X65000000Y-100000000D03*
D59*
X149000000Y-98300000D03*
X150000000Y-95900000D03*
X150000000Y-110800000D03*
X149000000Y-73700000D03*
X149000000Y-108400000D03*
X150900000Y-71300000D03*
X149000000Y-113200000D03*
X149000000Y-93500000D03*
X150000000Y-105500000D03*
X150000000Y-100700000D03*
X150000000Y-115600000D03*
X149000000Y-103100000D03*
D33*
X120700000Y-129000000D03*
X110600000Y-70750000D03*
D59*
X149000000Y-68900000D03*
X150900000Y-76100000D03*
D17*
X112900000Y-83100000D03*
D18*
X112900000Y-85640000D03*
M02*
