M48
;DRILL file {KiCad 4.0.7} date 06/22/19 17:45:16
;FORMAT={-:-/ absolute / metric / decimal}
FMAT,2
METRIC,TZ
T1C0.300
T2C0.400
T3C0.650
T4C0.700
T5C0.800
T6C0.900
T7C1.000
T8C1.200
T9C1.500
T10C2.200
T11C7.300
%
G90
G05
M71
T1
X162.4Y-104.8
X190.25Y-60.25
X196.75Y-73.5
X196.75Y-76.5
X196.75Y-78.5
X198.9Y-96.5
X199.75Y-104.1
X201.1Y-97.5
X212.15Y-66.75
T2
X64.Y-96.9
X64.Y-103.1
X65.25Y-81.8
X65.75Y-118.1
X66.Y-124.75
X66.25Y-75.3
X68.5Y-126.5
X69.25Y-83.25
X69.8Y-96.2
X69.8Y-99.4
X70.Y-87.5
X70.Y-100.75
X70.Y-130.1
X70.25Y-94.5
X70.25Y-121.5
X70.4Y-133.7
X70.75Y-105.75
X70.75Y-139.9
X71.25Y-94.75
X71.25Y-111.5
X71.3Y-100.5
X71.5Y-85.
X71.75Y-86.75
X72.Y-79.75
X72.25Y-81.75
X73.1Y-64.
X73.1Y-67.3
X73.3Y-126.1
X73.3Y-130.1
X73.3Y-133.7
X73.5Y-137.7
X73.9Y-63.15
X73.9Y-67.3
X74.Y-113.5
X74.25Y-81.5
X74.5Y-73.
X75.5Y-74.5
X75.5Y-78.
X76.25Y-67.
X76.75Y-95.8
X76.75Y-99.05
X76.75Y-100.95
X76.75Y-104.2
X77.3Y-60.
X77.3Y-62.
X77.3Y-64.
X77.3Y-66.
X77.4Y-94.
X77.75Y-84.75
X77.75Y-133.7
X77.875Y-107.375
X78.Y-91.5
X78.5Y-67.
X78.7Y-124.95
X78.75Y-57.25
X78.75Y-117.5
X79.Y-145.5
X79.25Y-135.35
X79.5Y-97.5
X79.5Y-102.75
X79.5Y-105.25
X79.9Y-143.4
X80.Y-59.6
X80.Y-63.8
X80.Y-65.4
X80.Y-69.2
X80.Y-81.75
X80.Y-94.75
X80.55Y-134.45
X80.9Y-70.55
X81.05Y-144.2
X81.25Y-66.25
X81.6Y-128.05
X81.75Y-97.25
X82.Y-59.25
X82.Y-71.6
X82.Y-75.5
X82.Y-102.75
X82.Y-121.3
X82.05Y-64.6
X82.4Y-133.5
X82.55Y-69.6
X82.55Y-139.05
X83.1Y-70.6
X84.Y-147.5
X84.25Y-101.
X84.25Y-114.5
X84.6Y-161.65
X84.75Y-95.
X85.Y-138.2
X85.2Y-66.4
X85.5Y-105.25
X86.8Y-98.2
X86.8Y-101.2
X87.Y-92.75
X87.25Y-66.4
X87.25Y-113.5
X87.5Y-65.5
X87.5Y-100.25
X87.51Y-142.15
X88.7Y-61.
X88.73Y-42.58
X88.73Y-167.68
X88.8Y-89.4
X88.95Y-136.6
X89.2Y-92.6
X89.2Y-107.6
X89.2Y-111.2
X89.2Y-134.1
X90.75Y-98.25
X90.8Y-92.8
X90.8Y-107.2
X91.3Y-157.3
X91.4Y-45.88
X92.Y-89.4
X92.Y-147.5
X92.2Y-111.2
X94.1Y-156.1
X94.2Y-89.4
X94.4Y-94.05
X94.4Y-106.
X94.4Y-111.25
X95.1Y-32.2
X95.4Y-157.5
X95.7Y-100.
X96.5Y-65.5
X97.4Y-111.2
X97.6Y-89.4
X98.Y-95.8
X98.Y-98.25
X98.Y-100.
X98.Y-101.75
X98.Y-104.3
X98.Y-107.75
X99.7Y-107.5
X100.025Y-85.275
X100.25Y-64.8
X101.Y-69.5
X101.25Y-114.5
X101.6Y-94.
X101.75Y-100.1
X101.8Y-106.
X101.85Y-77.
X102.25Y-124.5
X103.5Y-110.25
X104.3Y-134.
X105.Y-98.
X105.25Y-139.5
X105.4Y-93.
X105.4Y-107.2
X105.75Y-83.5
X105.75Y-86.25
X105.75Y-88.75
X106.Y-77.
X106.3Y-132.
X107.Y-92.
X107.Y-107.8
X108.15Y-90.35
X108.5Y-79.5
X108.5Y-81.5
X108.5Y-83.5
X108.5Y-100.
X108.6Y-106.75
X109.Y-124.5
X109.Y-128.6
X109.5Y-77.
X109.6Y-98.6
X109.6Y-101.4
X110.3Y-99.8
X110.3Y-106.6
X111.Y-100.3
X111.Y-105.4
X111.375Y-113.375
X111.7Y-128.2
X111.7Y-130.5
X111.9Y-124.3
X112.25Y-75.
X112.25Y-140.
X113.Y-104.4
X113.1Y-123.1
X113.25Y-109.25
X113.5Y-69.25
X113.94Y-119.
X114.Y-77.
X114.1Y-104.5
X114.65Y-91.75
X114.65Y-93.
X114.65Y-103.2
X114.65Y-105.8
X115.25Y-73.5
X115.4Y-126.4
X115.5Y-114.
X115.7Y-58.5
X115.8Y-71.
X115.9Y-75.75
X116.25Y-123.25
X116.25Y-131.5
X117.2Y-104.4
X117.25Y-62.75
X117.3Y-78.8
X117.3Y-141.
X117.5Y-77.
X118.1Y-90.6
X118.25Y-114.
X118.5Y-69.
X118.55Y-94.27
X118.575Y-120.825
X119.425Y-134.825
X119.75Y-102.95
X119.8Y-105.8
X119.9Y-104.4
X120.25Y-77.
X120.6Y-112.1
X120.7Y-114.
X120.7Y-116.5
X120.75Y-85.5
X120.9Y-93.75
X121.1Y-58.5
X121.2Y-71.
X121.25Y-107.5
X122.45Y-95.02
X122.5Y-132.3
X122.55Y-103.25
X122.65Y-104.7
X122.7Y-141.
X122.85Y-100.05
X123.4Y-110.8
X123.5Y-107.4
X123.9Y-62.25
X124.Y-78.
X124.2Y-89.9
X124.7Y-125.
X124.75Y-119.
X125.Y-79.25
X125.Y-96.
X125.4Y-136.
X125.45Y-74.15
X125.45Y-83.045
X125.8Y-104.4
X126.2Y-97.5
X126.4Y-131.065
X126.4Y-132.335
X127.Y-102.45
X127.25Y-78.
X127.5Y-113.7
X127.6Y-105.3
X127.85Y-89.94
X127.85Y-91.21
X128.8Y-129.8
X129.2Y-136.
X129.5Y-95.1
X129.6Y-96.3
X129.75Y-138.
X129.9Y-76.
X130.2Y-99.8
X130.4Y-133.6
X131.3Y-86.7
X131.4Y-93.25
X131.4Y-96.5
X131.75Y-64.25
X131.8Y-131.065
X131.8Y-132.335
X132.5Y-113.7
X132.8Y-136.
X133.4Y-133.9
X133.6Y-129.3
X134.5Y-70.6
X134.6Y-72.85
X134.75Y-83.045
X134.9Y-88.4
X134.9Y-136.1
X135.4Y-61.8
X135.8Y-63.
X135.8Y-64.8
X136.1Y-76.7
X136.2Y-69.4
X136.2Y-118.1
X136.3Y-119.4
X136.4Y-98.3
X136.4Y-101.7
X136.75Y-120.25
X136.8Y-136.1
X137.6Y-77.5
X137.7Y-80.5
X137.7Y-82.5
X137.7Y-100.
X138.45Y-99.3
X138.6Y-109.1
X139.9Y-103.2
X140.3Y-88.4
X140.4Y-111.4
X140.4Y-113.4
X140.4Y-117.8
X140.4Y-120.4
X140.6Y-75.5
X140.8Y-73.5
X140.8Y-74.5
X140.8Y-76.5
X140.9Y-105.9
X142.9Y-96.8
X142.9Y-101.9
X144.2Y-112.7
X144.5Y-114.9
X144.5Y-115.8
X153.75Y-102.405
X156.Y-69.6
X156.Y-71.8
X156.Y-83.15
X156.Y-85.05
X156.3Y-113.25
X156.3Y-115.5
X156.5Y-66.7
X156.5Y-80.
X156.75Y-103.675
X157.2Y-127.25
X157.2Y-129.3
X157.5Y-124.1
X157.55Y-65.95
X157.75Y-109.4
X158.7Y-105.5
X158.85Y-109.4
X159.8Y-63.2
X160.1Y-90.6
X160.25Y-99.
X160.4Y-58.4
X160.4Y-60.6
X160.5Y-101.
X161.Y-105.65
X161.05Y-67.95
X161.25Y-94.25
X161.5Y-138.2
X161.5Y-141.4
X161.8Y-73.5
X161.9Y-101.
X162.5Y-135.
X162.65Y-114.4
X162.65Y-128.1
X162.7Y-70.7
X162.7Y-84.1
X162.75Y-99.
X162.75Y-121.25
X163.Y-148.1
X163.5Y-104.
X163.6Y-111.75
X163.6Y-116.6
X163.75Y-78.75
X163.925Y-131.175
X163.95Y-94.75
X164.Y-63.2
X164.Y-71.75
X164.Y-85.25
X164.05Y-129.1
X164.3Y-146.
X164.75Y-68.75
X164.95Y-103.
X164.95Y-118.6
X164.95Y-124.
X164.95Y-132.4
X165.Y-82.6
X165.Y-88.
X165.Y-112.8
X165.05Y-75.2
X165.05Y-80.1
X165.05Y-110.4
X165.1Y-97.
X165.1Y-126.65
X165.15Y-66.9
X165.4Y-138.2
X165.5Y-107.1
X165.55Y-95.5
X165.95Y-70.7
X165.95Y-84.1
X165.95Y-114.4
X165.95Y-128.1
X166.2Y-105.7
X166.3Y-90.3
X166.5Y-67.75
X166.5Y-80.75
X166.5Y-112.05
X166.5Y-125.55
X166.5Y-142.5
X166.65Y-134.7
X166.8Y-97.1
X166.9Y-108.
X167.Y-76.75
X167.05Y-70.7
X167.05Y-84.1
X167.05Y-114.4
X167.05Y-128.1
X167.2Y-132.4
X167.25Y-145.85
X167.3Y-58.4
X167.3Y-60.6
X167.3Y-110.4
X167.4Y-75.1
X167.75Y-134.7
X167.8Y-66.7
X167.85Y-118.6
X167.85Y-124.
X167.9Y-115.6
X167.9Y-129.6
X167.95Y-80.1
X167.95Y-87.65
X168.Y-85.4
X168.Y-93.2
X168.Y-120.5
X168.1Y-63.2
X168.2Y-105.95
X168.25Y-78.25
X168.25Y-90.3
X168.5Y-95.55
X168.85Y-54.15
X169.Y-143.75
X169.3Y-138.2
X169.75Y-60.5
X169.8Y-52.9
X169.95Y-95.3
X170.Y-98.6
X170.Y-123.5
X170.1Y-57.165
X170.25Y-76.8
X170.4Y-105.9
X170.5Y-61.6
X170.5Y-70.75
X170.5Y-89.5
X170.55Y-63.75
X170.65Y-101.35
X170.75Y-80.75
X171.Y-54.3
X171.Y-88.25
X171.Y-94.35
X171.1Y-98.6
X171.25Y-60.75
X171.25Y-67.5
X171.3Y-74.
X171.3Y-125.5
X171.3Y-131.7
X171.5Y-109.25
X171.75Y-52.75
X172.Y-80.
X172.1Y-59.9
X172.3Y-52.1
X172.75Y-104.75
X173.Y-62.2
X173.Y-138.8
X173.3Y-52.8
X173.5Y-56.8
X173.5Y-60.5
X174.Y-95.4
X175.75Y-55.5
X175.75Y-58.
X176.6Y-148.1
X178.Y-55.5
X178.Y-58.
X178.Y-145.1
X178.75Y-138.8
X181.Y-61.2
X181.2Y-139.7
X182.7Y-142.8
X185.8Y-139.8
X186.45Y-61.25
X186.8Y-58.
X192.2Y-98.
X194.75Y-99.5
X196.9Y-93.5
X197.6Y-113.75
X197.95Y-120.8
X199.7Y-98.
X202.4Y-53.4
X202.75Y-73.25
X202.75Y-78.
X202.75Y-79.75
X202.75Y-81.5
X202.75Y-84.75
X204.75Y-72.5
X204.75Y-77.25
X204.75Y-80.
X204.75Y-83.
X204.75Y-85.5
X206.3Y-110.7
X206.3Y-116.7
X213.25Y-57.25
X213.325Y-61.325
X216.75Y-57.5
X216.75Y-60.
X216.9Y-62.25
X218.Y-58.
X218.075Y-53.675
X218.075Y-60.425
X218.075Y-64.575
X219.Y-135.4
X219.4Y-68.6
X219.4Y-72.8
X219.9Y-126.8
X220.Y-104.2
X220.6Y-106.8
X220.75Y-61.25
X221.Y-142.4
X221.8Y-113.4
X222.75Y-61.25
X222.825Y-57.175
X223.2Y-78.8
X223.2Y-135.8
X226.4Y-131.6
X228.1Y-116.2
X229.2Y-120.75
X230.3Y-116.2
T3
X229.2Y-112.4
X229.2Y-113.67
T4
X70.Y-90.
X70.Y-110.
X72.56Y-90.
X72.56Y-110.
X80.5Y-90.
X80.5Y-110.
X83.06Y-90.
X83.06Y-110.
X86.2Y-59.12
X86.2Y-64.2
X108.2Y-137.2
X113.28Y-137.2
X149.Y-68.9
X149.Y-73.7
X149.Y-93.5
X149.Y-98.3
X149.Y-103.1
X149.Y-108.4
X149.Y-113.2
X150.Y-95.9
X150.Y-100.7
X150.Y-105.5
X150.Y-110.8
X150.Y-115.6
X150.9Y-71.3
X150.9Y-76.1
T5
X99.72Y-60.8
X99.72Y-66.6
X99.72Y-72.4
X102.26Y-60.8
X102.26Y-66.6
X102.26Y-72.4
X104.8Y-60.8
X104.8Y-66.6
X104.8Y-72.4
X107.Y-134.4
X111.4Y-117.
X113.94Y-117.
X114.5Y-134.4
X116.48Y-117.
X192.975Y-59.185
X192.975Y-61.725
X192.975Y-64.265
X212.74Y-99.28
X212.74Y-101.82
X212.74Y-104.36
X212.74Y-106.9
X222.9Y-99.28
X222.9Y-101.82
X222.9Y-104.36
X222.9Y-106.9
T6
X72.66Y-83.4
X72.66Y-116.6
X75.2Y-83.4
X75.2Y-116.6
X81.66Y-44.6
X81.66Y-155.5
X83.06Y-83.4
X83.26Y-116.6
X84.2Y-44.6
X84.2Y-155.5
X85.6Y-83.4
X85.8Y-116.6
T7
X88.6Y-71.4
X93.6Y-71.4
X112.9Y-83.1
X112.9Y-85.64
X191.12Y-140.5
X193.66Y-137.96
X193.66Y-143.04
X196.2Y-137.96
X196.2Y-143.04
X198.74Y-137.96
X198.74Y-143.04
X201.28Y-140.5
X206.Y-96.55
X206.Y-99.09
X206.Y-101.63
X206.Y-104.17
X206.Y-106.71
X210.185Y-85.725
X210.185Y-88.265
X210.185Y-90.805
X210.185Y-93.345
X210.185Y-95.885
X210.185Y-98.425
X210.185Y-100.965
X210.185Y-103.505
X210.185Y-106.045
X210.185Y-108.585
X210.185Y-111.125
X210.185Y-113.665
X210.185Y-116.205
X210.185Y-118.745
X210.185Y-121.285
X210.185Y-123.825
X210.185Y-126.365
X211.Y-75.75
X213.54Y-75.75
X216.08Y-75.75
X217.26Y-132.2
X218.62Y-75.75
X219.8Y-132.2
X221.16Y-75.75
X225.425Y-85.725
X225.425Y-88.265
X225.425Y-90.805
X225.425Y-93.345
X225.425Y-95.885
X225.425Y-98.425
X225.425Y-100.965
X225.425Y-103.505
X225.425Y-106.045
X225.425Y-108.585
X225.425Y-111.125
X225.425Y-113.665
X225.425Y-116.205
X225.425Y-118.745
X225.425Y-121.285
X225.425Y-123.825
X225.425Y-126.365
T8
X84.Y-56.6
X93.Y-118.
X93.2Y-82.
X96.55Y-126.26
X96.55Y-128.8
X96.55Y-133.86
X96.55Y-136.4
X98.8Y-82.
X98.8Y-118.
X105.8Y-117.
X110.6Y-70.75
X120.7Y-129.
X152.5Y-60.
X153.8Y-93.6
X153.8Y-106.8
X154.3Y-77.3
X154.4Y-137.7
X156.25Y-57.75
X171.3Y-113.16
X171.3Y-115.7
X171.4Y-82.8
X171.4Y-85.34
X175.4Y-141.6
X188.7Y-137.2
X213.3Y-132.2
T10
X65.Y-100.
X67.Y-78.5
X67.Y-121.5
X73.Y-57.
X73.Y-143.
X105.Y-52.5
X105.Y-147.5
X139.8Y-147.5
X140.Y-52.5
T11
X90.Y-37.5
X90.Y-162.6
T9
X198.014Y-131.2G85X196.514Y-131.2
G05
X202.05Y-131.95G85X202.05Y-130.45
G05
T0
M30
