  0
SECTION
  2
HEADER
  9
$ACADVER
  1
AC1006
  0
ENDSEC
  0
SECTION
  2
TABLES
  0
TABLE
  2
LTYPE
 70
    9
  0
LTYPE
  2
CONTINUOUS
 70
   64
  3
SOLID
 72
   65
 73
    0
 40
0.0
  0
LTYPE
  2
DASHED
 70
   64
  3
_ _ _ _ _ _ _ _ _ _ _ _ _ _ _ _ _ _ _ _ _ _ _
 72
   65
 73
    2
 40
4.0
 49
3.0
 49
-1.0
  0
LTYPE
  2
DOT
 70
   64
  3
...............................................
 72
   65
 73
    2
 40
2.0
 49
1.0
 49
-1.0
  0
LTYPE
  2
DASHDOT
 70
   64
  3
____ _ ____ _ ____ _ ____ _ ____ _ ____ _ ____
 72
   65
 73
    4
 40
8.0
 49
5.0
 49
-1.0
 49
1.0
 49
-1.0
  0
LTYPE
  2
DIVIDE
 70
   64
  3
_____ _ _ _____ _ _ _____ _ _ _____ _ _ ____
 72
   65
 73
    6
 40
10.0
 49
5.0
 49
-1.0
 49
1.0
 49
-1.0
 49
1.0
 49
-1.0
  0
ENDTAB
  0
TABLE
  2
LAYER
 70
    2
  0
LAYER
  2
NULL
 70
   64
 62
    7
  6
CONTINUOUS
  0
LAYER
  2
Layer0
 70
   64
 62
    7
  6
CONTINUOUS
  0
ENDTAB
  0
ENDSEC
  0
SECTION
  2
ENTITIES
  0
LINE
  8
Layer0
  6
CONTINUOUS
 62
7
 10
26.000000200520
 20
-35.000000000062
 11
39.000000200520
 21
-35.000000000062
  0
LINE
  8
Layer0
  6
CONTINUOUS
 62
7
 10
39.000000200520
 20
34.999999999938
 11
26.000000200520
 21
34.999999999938
  0
LINE
  8
Layer0
  6
CONTINUOUS
 62
7
 10
25.000000200520
 20
33.999999999938
 11
25.000000200520
 21
-34.000000000062
  0
LINE
  8
Layer0
  6
CONTINUOUS
 62
7
 10
0.000000000000
 20
50.000000000000
 11
0.000000000000
 21
46.000000000000
  0
ARC
  8
Layer0
  6
CONTINUOUS
 62
7
 10
-44.999714942506
 20
-0.075130057645
 40
130.000000000000
 50
-22.583997663259
 51
22.655741590681
  0
ARC
  8
Layer0
  6
CONTINUOUS
 62
7
 10
26.000000200520
 20
33.999999999938
 40
1.000000000000
 50
90.000000000000
 51
180.000000000000
  0
ARC
  8
Layer0
  6
CONTINUOUS
 62
7
 10
39.000000200520
 20
33.999999999938
 40
1.000000000000
 50
0.000000000000
 51
90.000000000000
  0
ARC
  8
Layer0
  6
CONTINUOUS
 62
7
 10
26.000000200520
 20
-34.000000000062
 40
1.000000000000
 50
180.000000000000
 51
270.000000000000
  0
ARC
  8
Layer0
  6
CONTINUOUS
 62
7
 10
39.000000200520
 20
-34.000000000062
 40
1.000000000000
 50
-90.000000000000
 51
0.000000000000
  0
LINE
  8
Layer0
  6
CONTINUOUS
 62
7
 10
1.000000000000
 20
45.000000000000
 11
9.000000000000
 21
45.000000000000
  0
LINE
  8
Layer0
  6
CONTINUOUS
 62
7
 10
40.000000000000
 20
-50.000000000000
 11
40.000000000000
 21
-46.000000000000
  0
LINE
  8
Layer0
  6
CONTINUOUS
 62
7
 10
1.000000000000
 20
-45.000000000000
 11
9.000000000000
 21
-45.000000000000
  0
LINE
  8
Layer0
  6
CONTINUOUS
 62
7
 10
10.000000000000
 20
-50.000000000000
 11
10.000000000000
 21
-46.000000000000
  0
LINE
  8
Layer0
  6
CONTINUOUS
 62
7
 10
30.000000000000
 20
-50.000000000000
 11
30.000000000000
 21
-46.000000000000
  0
ARC
  8
Layer0
  6
CONTINUOUS
 62
7
 10
9.000000000000
 20
-46.000000000000
 40
1.000000000000
 50
0.000000000000
 51
90.000000000000
  0
LINE
  8
Layer0
  6
CONTINUOUS
 62
7
 10
31.000000000000
 20
-45.000000000000
 11
39.000000000000
 21
-45.000000000000
  0
LINE
  8
Layer0
  6
CONTINUOUS
 62
7
 10
30.000000000000
 20
46.000000000000
 11
30.000000000000
 21
50.000000000000
  0
LINE
  8
Layer0
  6
CONTINUOUS
 62
7
 10
31.000000000000
 20
45.000000000000
 11
39.000000000000
 21
45.000000000000
  0
LINE
  8
Layer0
  6
CONTINUOUS
 62
7
 10
10.000000000000
 20
46.000000000000
 11
10.000000000000
 21
50.000000000000
  0
LINE
  8
Layer0
  6
CONTINUOUS
 62
7
 10
40.000000000000
 20
-34.000000000062
 11
40.000000000000
 21
33.999999999938
  0
LINE
  8
Layer0
  6
CONTINUOUS
 62
7
 10
40.000000000000
 20
46.000000000000
 11
40.000000000000
 21
50.000000000000
  0
ARC
  8
Layer0
  6
CONTINUOUS
 62
7
 10
1.000000000000
 20
46.000000000000
 40
1.000000000000
 50
180.000000000000
 51
270.000000000000
  0
ARC
  8
Layer0
  6
CONTINUOUS
 62
7
 10
9.000000000000
 20
46.000000000000
 40
1.000000000000
 50
-90.000000000000
 51
0.000000000000
  0
ARC
  8
Layer0
  6
CONTINUOUS
 62
7
 10
31.000000000000
 20
46.000000000000
 40
1.000000000000
 50
180.000000000000
 51
270.000000000000
  0
ARC
  8
Layer0
  6
CONTINUOUS
 62
7
 10
39.000000000000
 20
46.000000000000
 40
1.000000000000
 50
-90.000000000000
 51
0.000000000000
  0
LINE
  8
Layer0
  6
CONTINUOUS
 62
7
 10
0.000000000000
 20
-46.000000000000
 11
-0.000000000000
 21
-50.000000000000
  0
ARC
  8
Layer0
  6
CONTINUOUS
 62
7
 10
1.000000000000
 20
-46.000000000000
 40
1.000000000000
 50
90.000000000000
 51
180.000000000000
  0
ARC
  8
Layer0
  6
CONTINUOUS
 62
7
 10
31.000000000000
 20
-46.000000000000
 40
1.000000000000
 50
90.000000000000
 51
180.000000000000
  0
ARC
  8
Layer0
  6
CONTINUOUS
 62
7
 10
39.000000000000
 20
-46.000000000000
 40
1.000000000000
 50
0.000000000000
 51
90.000000000000
  0
LINE
  8
Layer0
  6
CONTINUOUS
 62
7
 10
10.000000000000
 20
50.000000000000
 11
30.000000000000
 21
50.000000000000
  0
LINE
  8
Layer0
  6
CONTINUOUS
 62
7
 10
40.000000000000
 20
50.000000000000
 11
74.968953257612
 21
50.000000000000
  0
LINE
  8
Layer0
  6
CONTINUOUS
 62
7
 10
10.000000000000
 20
-50.000000000000
 11
30.000000000000
 21
-50.000000000000
  0
LINE
  8
Layer0
  6
CONTINUOUS
 62
7
 10
40.000000000000
 20
-50.000000000000
 11
75.031561653384
 21
-50.000000000000
  0
ENDSEC
  0
EOF
